<?xml version="1.0" encoding="utf-8"?>
<!-- Generator: Adobe Illustrator 16.0.3, SVG Export Plug-In . SVG Version: 6.00 Build 0)  -->
<!DOCTYPE svg PUBLIC "-//W3C//DTD SVG 1.1//EN" "http://www.w3.org/Graphics/SVG/1.1/DTD/svg11.dtd">
<svg version="1.1" id="Layer_1" xmlns="http://www.w3.org/2000/svg" xmlns:xlink="http://www.w3.org/1999/xlink" x="0px" y="0px"
	 width="595.279px" height="841.891px" viewBox="0 0 595.279 841.891" enable-background="new 0 0 595.279 841.891"
	 xml:space="preserve">
<g>
	<g>
		<g>
			<path fill="#F0E160" d="M570.477,520.158v-297.64c0-27.39-22.217-49.607-49.606-49.607H74.41
				c-27.391,0-49.607,22.217-49.607,49.607v297.64C11.105,520.158,0,531.264,0,544.962v74.41c0,27.39,22.217,49.607,49.606,49.607
				h496.067c27.39,0,49.607-22.218,49.607-49.607v-74.41C595.28,531.264,584.175,520.158,570.477,520.158z M74.41,222.518h446.46
				v297.64H372.05c-6.578,0-12.887,2.613-17.539,7.264l-17.538,17.539h-78.665l-17.539-17.539
				c-4.651-4.651-10.96-7.264-17.539-7.264H74.41V222.518z M545.673,619.372H49.607v-49.606h163.351l17.538,17.538
				c4.652,4.652,10.961,7.265,17.539,7.265h99.213c6.578,0,12.887-2.614,17.538-7.265l17.539-17.538h163.35L545.673,619.372
				L545.673,619.372z"/>
			<path fill="#F0E160" d="M232.179,401.338c-2.679-4.464-8.458-5.928-12.897-3.273c-4.539,2.703-9.251,4.067-14.014,4.067
				c-15.552,0-28.226-12.674-28.226-28.226c0-15.576,12.674-28.226,28.226-28.226c4.763,0,9.475,1.364,14.014,4.068
				c4.44,2.654,10.219,1.19,12.897-3.274c2.654-4.465,1.19-10.244-3.273-12.897c-7.491-4.464-15.428-6.721-23.639-6.721
				c-25.944,0-47.052,21.108-47.052,47.051c0,25.945,21.108,47.027,47.052,47.027c8.21,0,16.147-2.232,23.639-6.697
				C233.369,411.582,234.833,405.803,232.179,401.338z"/>
			<path fill="#F0E160" d="M299.359,402.132h-14.932c-6.052,0-11.757-2.356-16.049-6.672c-3.696-3.646-9.648-3.67-13.319,0.024
				c-3.67,3.67-3.67,9.624,0,13.295c7.863,7.837,18.28,12.153,29.368,12.153h14.932c15.552,0,28.226-12.65,28.226-28.202
				c0-15.576-12.674-28.226-28.226-28.226h-9.426h-9.4c-5.184,0-9.399-4.241-9.399-9.425c0-5.185,4.217-9.4,9.399-9.4h14.933
				c6.052,0,11.756,2.357,16.048,6.647c3.67,3.67,9.623,3.67,13.295,0c3.696-3.67,3.696-9.623,0-13.295
				c-7.838-7.863-18.255-12.179-29.342-12.179h-14.932c-15.552,0-28.227,12.674-28.227,28.226c0,15.576,12.675,28.226,28.227,28.226
				h9.399h9.426c5.185,0,9.4,4.217,9.4,9.425C308.76,397.915,304.543,402.132,299.359,402.132z"/>
			<path fill="#F0E160" d="M374.607,383.32h9.426h9.399c5.185,0,9.4,4.217,9.4,9.4s-4.217,9.4-9.4,9.4H378.5
				c-6.052,0-11.757-2.356-16.048-6.646c-3.671-3.67-9.624-3.67-13.295,0c-3.696,3.671-3.696,9.623,0,13.319
				c7.837,7.838,18.255,12.153,29.342,12.153h14.932c15.576,0,28.226-12.674,28.226-28.226c0-15.576-12.649-28.226-28.226-28.226
				h-9.399h-9.426c-5.185,0-9.4-4.217-9.4-9.4c0-5.184,4.217-9.426,9.4-9.426h14.932c6.052,0,11.757,2.381,16.048,6.672
				c3.696,3.67,9.649,3.67,13.319,0c3.671-3.696,3.671-9.649,0-13.319c-7.862-7.837-18.28-12.153-29.367-12.153h-14.932
				c-15.552,0-28.227,12.65-28.227,28.226C346.381,370.646,359.055,383.32,374.607,383.32z"/>
		</g>
	</g>
</g>
</svg>
