<?xml version="1.0" encoding="utf-8"?>
<!-- Generator: Adobe Illustrator 16.0.3, SVG Export Plug-In . SVG Version: 6.00 Build 0)  -->
<!DOCTYPE svg PUBLIC "-//W3C//DTD SVG 1.1//EN" "http://www.w3.org/Graphics/SVG/1.1/DTD/svg11.dtd">
<svg version="1.1" id="Layer_1" xmlns="http://www.w3.org/2000/svg" xmlns:xlink="http://www.w3.org/1999/xlink" x="0px" y="0px"
	 width="24px" height="24px" viewBox="0 0 24 24" enable-background="new 0 0 24 24" xml:space="preserve">
<title>Django icon</title>
<path fill="#F0E160" d="M11.146,0h3.924v18.165c-2.014,0.382-3.491,0.535-5.096,0.535c-4.791,0-7.288-2.166-7.288-6.32
	c0-4.001,2.65-6.6,6.753-6.6c0.637,0,1.121,0.051,1.707,0.204V0z M11.146,9.143c-0.427-0.144-0.875-0.213-1.325-0.204
	c-1.988,0-3.134,1.223-3.134,3.364c0,2.09,1.096,3.236,3.109,3.236c0.433,0,0.79-0.025,1.35-0.102V9.143L11.146,9.143z M21.314,6.06
	v9.097c0,3.134-0.229,4.638-0.918,5.937c-0.637,1.249-1.478,2.039-3.211,2.905l-3.644-1.733c1.733-0.814,2.574-1.529,3.108-2.625
	c0.562-1.121,0.74-2.421,0.74-5.834V6.059L21.314,6.06L21.314,6.06z M17.391,0.021h3.924v4.026h-3.924V0.021z"/>
</svg>
