<?xml version="1.0" encoding="utf-8"?>
<!-- Generator: Adobe Illustrator 16.0.3, SVG Export Plug-In . SVG Version: 6.00 Build 0)  -->
<!DOCTYPE svg PUBLIC "-//W3C//DTD SVG 1.1//EN" "http://www.w3.org/Graphics/SVG/1.1/DTD/svg11.dtd">
<svg version="1.1" id="Layer_1" xmlns="http://www.w3.org/2000/svg" xmlns:xlink="http://www.w3.org/1999/xlink" x="0px" y="0px"
	 width="595.279px" height="841.891px" viewBox="0 0 595.279 841.891" enable-background="new 0 0 595.279 841.891"
	 xml:space="preserve">
<path fill="#F0E160" d="M264.744,84h113.066v523.361c-58.018,11.002-100.587,15.42-146.83,15.42
	C92.945,622.781,21,560.375,21,440.684c0-115.274,76.348-190.145,194.562-190.145c18.358,0,32.3,1.463,49.182,5.866V84z
	 M264.744,347.425c-12.295-4.15-25.21-6.134-38.181-5.88c-57.271,0-90.29,35.24-90.29,96.915c0,60.211,31.583,93.244,89.572,93.244
	c12.479,0,22.763-0.731,38.898-2.927V347.425L264.744,347.425z M557.712,258.6v262.103c0,90.29-6.611,133.618-26.448,171.04
	c-18.372,35.987-42.598,58.748-92.511,83.705l-105.005-49.941c49.913-23.438,74.168-44.062,89.53-75.63
	c16.207-32.301,21.327-69.75,21.327-168.086V258.571L557.712,258.6L557.712,258.6z M444.661,84.605h113.051v115.991H444.661V84.605z
	"/>
</svg>
