<?xml version="1.0" encoding="utf-8"?>
<!-- Generator: Adobe Illustrator 16.0.3, SVG Export Plug-In . SVG Version: 6.00 Build 0)  -->
<!DOCTYPE svg PUBLIC "-//W3C//DTD SVG 1.1//EN" "http://www.w3.org/Graphics/SVG/1.1/DTD/svg11.dtd">
<svg version="1.1" id="Layer_1" xmlns="http://www.w3.org/2000/svg" xmlns:xlink="http://www.w3.org/1999/xlink" x="0px" y="0px"
	 width="595.279px" height="841.891px" viewBox="0 0 595.279 841.891" enable-background="new 0 0 595.279 841.891"
	 xml:space="preserve">
<g>
	<path fill="#F0E160" d="M295.308,431.457c-14.714,1.233-28.204-4.953-42.922-9.898c-77.258-25.979-155.744-51.953-233.007-77.932
		c-4.904-2.476-8.581-3.715-12.264-7.423c-4.903-3.709-4.903-8.663,0-12.371c3.683-2.476,8.587-6.185,13.491-7.423
		c83.396-24.741,165.557-49.482,248.953-75.461c18.395-6.185,38.012-6.185,57.642,0c82.154,24.742,164.323,49.482,246.49,74.223
		c4.911,2.477,9.81,3.715,14.72,7.423c6.132,3.715,6.132,9.899,0,13.609c-3.678,2.476-7.365,4.947-12.265,6.185
		c-82.167,27.217-164.335,55.667-247.724,82.885C317.38,430.214,307.571,431.457,295.308,431.457z"/>
	<path fill="#F0E160" d="M132.205,435.167c-12.264-2.477-14.719,4.953-14.719,11.138c0,32.158,0,63.085,0,94.011
		c0,11.139,3.683,17.323,11.042,24.74c2.449,2.476,6.131,4.953,8.58,7.418c19.624,13.614,42.922,22.276,66.222,28.461
		c46.604,12.372,93.204,14.835,141.031,8.65c30.658-3.708,61.317-12.371,89.521-24.741c12.265-6.186,24.528-12.37,33.115-22.265
		c6.131-6.185,8.585-12.37,7.364-21.031c1.221-29.682,1.221-60.607,1.221-91.533c0-17.324-12.262-14.848-17.172-13.616
		c-42.923,14.848-88.288,28.462-131.21,43.297c-22.085,7.43-42.928,7.43-63.773,0L132.205,435.167z"/>
	<path fill="#F0E160" d="M541.811,406.717c-3.689,1.232-4.91,2.471-4.91,7.418c0,28.45,0,55.668,0,84.117
		c0,2.476-1.222,6.185-2.454,8.662c-6.133,14.846-12.265,29.692-17.163,44.54c-4.91,13.602-2.455,28.449,7.354,38.343
		c2.455,3.708,7.353,7.417,11.041,9.893c3.677,3.711,9.808,4.954,14.707,6.188c8.587,1.242,15.952-3.71,22.083-8.663
		c2.444-2.464,6.133-4.94,8.576-8.648c7.365-9.907,8.586-22.276,6.132-33.403c-3.677-17.322-11.031-32.17-18.396-47.006
		c-2.442-2.477-2.442-7.429-2.442-9.904c0-30.927,0-60.608,0-91.535c0-6.185-4.91-4.953-7.365-3.714L541.811,406.717z"/>
</g>
</svg>
