<?xml version="1.0" encoding="utf-8"?>
<!-- Generator: Adobe Illustrator 16.0.3, SVG Export Plug-In . SVG Version: 6.00 Build 0)  -->
<!DOCTYPE svg PUBLIC "-//W3C//DTD SVG 1.1//EN" "http://www.w3.org/Graphics/SVG/1.1/DTD/svg11.dtd">
<svg version="1.1" id="Capa_1" xmlns="http://www.w3.org/2000/svg" xmlns:xlink="http://www.w3.org/1999/xlink" x="0px" y="0px"
	 width="595.279px" height="841.891px" viewBox="0 0 595.279 841.891" enable-background="new 0 0 595.279 841.891"
	 xml:space="preserve">
<g>
	<path fill="#6B9688" d="M547.96,136.904H47.38C21.175,136.904,0,158.06,0,184.225v473.461c0,26.086,21.175,47.3,47.38,47.3h500.58
		c26.085,0,47.319-21.194,47.319-47.3V184.225C595.26,158.06,574.026,136.904,547.96,136.904z M400.134,305.567
		c-12.308-7.198-22.069-12.884-34.337-12.884c-12.009,0-22.269,3.002-27.518,8.052c-5.249,5.01-7.854,14.713-7.854,29.048v21.214
		h64.2l-13.897,59.011h-50.303v196.081h-80.643V410.01h-37.638v-59.011h37.677v-22.527c0-23.72,2.844-37.916,8.45-49.626
		c5.587-11.671,16.423-24.674,31.494-32.031c15.051-7.336,37.319-11.035,60.362-11.035c23.621,0,42.071,7.874,64.698,14.216
		L400.134,305.567z"/>
</g>
</svg>
