<?xml version="1.0" encoding="utf-8"?>
<!-- Generator: Adobe Illustrator 16.0.3, SVG Export Plug-In . SVG Version: 6.00 Build 0)  -->
<!DOCTYPE svg PUBLIC "-//W3C//DTD SVG 1.1//EN" "http://www.w3.org/Graphics/SVG/1.1/DTD/svg11.dtd">
<svg version="1.1" id="Layer_1" xmlns="http://www.w3.org/2000/svg" xmlns:xlink="http://www.w3.org/1999/xlink" x="0px" y="0px"
	 width="595.279px" height="841.891px" viewBox="0 0 595.279 841.891" enable-background="new 0 0 595.279 841.891"
	 xml:space="preserve">
<path fill="#6B9688" d="M89.292,123.305h416.695c49.315,0,89.292,39.978,89.292,89.292v416.696
	c0,49.314-39.977,89.292-89.292,89.292H89.292C39.978,718.585,0,678.607,0,629.293V212.597C0,163.282,39.978,123.305,89.292,123.305
	z"/>
<path fill="#333333" d="M389.49,703.471c16.277,0,13.952,19.765,13.952,19.765H191.838c0,0-2.325-19.765,13.952-19.765
	c15.114,0,18.603-6.976,18.603-13.952l-1.163-58.133c-82.548,18.603-99.988-32.554-99.988-32.554
	c-13.952-34.88-32.555-43.019-32.555-43.019c-27.903-18.603,1.163-18.603,1.163-18.603c30.229,2.325,46.506,30.229,46.506,30.229
	c25.579,45.344,68.598,32.555,86.037,25.579c2.325-19.766,10.464-32.555,18.603-40.693
	c-66.271-6.976-134.868-32.555-134.868-146.495c0-32.554,11.626-59.295,30.229-80.223c-3.487-6.976-12.789-37.205,3.488-77.898
	c0,0,24.416-8.138,81.386,30.229c48.832-13.952,99.988-13.952,148.82,0c56.97-38.368,81.386-30.229,81.386-30.229
	c16.277,40.693,6.976,70.922,3.488,77.898c18.603,20.928,30.229,47.669,30.229,80.223c0,113.94-69.759,139.52-136.03,146.495
	c11.626,9.302,20.928,27.904,20.928,55.808l-1.163,81.386C370.887,696.495,374.375,703.471,389.49,703.471z"/>
</svg>
