<?xml version="1.0" encoding="utf-8"?>
<!-- Generator: Adobe Illustrator 16.0.3, SVG Export Plug-In . SVG Version: 6.00 Build 0)  -->
<!DOCTYPE svg PUBLIC "-//W3C//DTD SVG 1.1//EN" "http://www.w3.org/Graphics/SVG/1.1/DTD/svg11.dtd">
<svg version="1.1" id="Layer_1" xmlns="http://www.w3.org/2000/svg" xmlns:xlink="http://www.w3.org/1999/xlink" x="0px" y="0px"
	 width="595.279px" height="841.891px" viewBox="0 0 595.279 841.891" enable-background="new 0 0 595.279 841.891"
	 xml:space="preserve">
<g id="HTML-file">
	<path fill="#F0E160" d="M348.904,460.04c-2.034,4.724,0.137,10.191,4.851,12.226l70.359,30.348l-70.205,28.856
		c-4.75,1.953-7.021,7.386-5.068,12.136c1.481,3.598,4.95,5.769,8.603,5.769c1.18,0,2.38-0.228,3.533-0.699l90.633-37.251
		c3.461-1.417,5.731-4.778,5.768-8.52c0.036-3.743-2.18-7.14-5.613-8.621l-90.633-39.094
		C356.398,453.154,350.939,455.316,348.904,460.04z"/>
	<path fill="#F0E160" d="M246.382,460.04c-2.035-4.724-7.504-6.876-12.227-4.851l-90.642,39.094
		c-3.434,1.481-5.649,4.878-5.613,8.621c0.036,3.741,2.307,7.103,5.768,8.52l90.642,37.251c1.153,0.472,2.353,0.699,3.533,0.699
		c3.652,0,7.131-2.171,8.603-5.769c1.953-4.75-0.318-10.183-5.068-12.136l-70.214-28.856l70.368-30.348
		C246.245,470.231,248.416,464.764,246.382,460.04z"/>
	<path fill="#F0E160" d="M332.073,416.849c-4.814-1.789-10.174,0.627-11.981,5.441L262.84,574.979
		c-1.799,4.814,0.637,10.173,5.441,11.98c1.081,0.399,2.18,0.59,3.27,0.59c3.761,0,7.313-2.297,8.711-6.03l57.252-152.689
		C339.313,424.016,336.878,418.656,332.073,416.849z"/>
	<path fill="#F0E160" d="M526.896,270.214L382.454,126.03c-1.744-1.744-4.248-2.726-6.714-2.726l-281.859,0.019
		c-15.337,0-28.772,12.48-28.772,27.822V689.46c0,7.775,3.916,15.088,9.42,20.601c5.504,5.496,13.703,8.524,21.479,8.524h405.385
		c7.395,0,14.894-2.879,20.126-8.11c5.223-5.232,8.653-12.181,8.653-19.566V276.79C530.171,274.324,528.639,271.958,526.896,270.214
		z M372.825,142.982l129.127,129.143H372.488C373.287,194.481,373.325,159.396,372.825,142.982z M511.569,690.908
		c0,2.39-1.523,4.728-3.208,6.418c-1.712,1.713-4.543,2.656-6.969,2.656H96.007c-2.812,0-6.341-1.094-8.326-3.074
		c-1.989-1.994-3.97-4.637-3.97-7.448V151.146c0-5.082,5.02-9.22,10.102-9.22l260.034-0.017c0.454,23.458,0.2,93.869-0.284,139.417
		c-0.027,2.484,1.051,4.877,2.8,6.64c1.748,1.767,4.239,2.761,6.724,2.761h148.482V690.908z"/>
</g>
</svg>
