<?xml version="1.0" encoding="utf-8"?>
<!-- Generator: Adobe Illustrator 16.0.3, SVG Export Plug-In . SVG Version: 6.00 Build 0)  -->
<!DOCTYPE svg PUBLIC "-//W3C//DTD SVG 1.1//EN" "http://www.w3.org/Graphics/SVG/1.1/DTD/svg11.dtd">
<svg version="1.1" id="Capa_1" xmlns="http://www.w3.org/2000/svg" xmlns:xlink="http://www.w3.org/1999/xlink" x="0px" y="0px"
	 width="595.279px" height="841.891px" viewBox="0 0 595.279 841.891" enable-background="new 0 0 595.279 841.891"
	 xml:space="preserve">
<g>
	<g>
		<path fill="#F0E160" d="M241.591,326.965h-0.882c-4.481,18.03-8.962,40.93-13.938,58.466l-17.995,64.252h66.97l-18.877-64.252
			C251.506,367.437,246.108,344.996,241.591,326.965z"/>
		<path fill="#F0E160" d="M558.796,123.305H36.448C16.301,123.305,0,139.606,0,159.753v522.383
			c0,20.112,16.301,36.448,36.448,36.448h522.383c20.112,0,36.448-16.336,36.448-36.448V159.753
			C595.28,139.642,578.944,123.305,558.796,123.305z M309.019,578.647l-23.393-77.73h-86.693l-21.595,77.73h-70.991l92.586-302.844
			h89.833l93.962,302.844H309.019z M486.675,578.647h-68.346V358.933h68.346V578.647z M452.097,331.976
			c-21.559,0-35.955-15.313-35.531-34.19c-0.424-19.794,13.973-34.543,36.024-34.543c21.982,0,35.92,14.784,36.343,34.543
			C488.934,316.663,474.573,331.976,452.097,331.976z"/>
	</g>
</g>
</svg>
