<?xml version="1.0" encoding="utf-8"?>
<!-- Generator: Adobe Illustrator 16.0.3, SVG Export Plug-In . SVG Version: 6.00 Build 0)  -->
<!DOCTYPE svg PUBLIC "-//W3C//DTD SVG 1.1//EN" "http://www.w3.org/Graphics/SVG/1.1/DTD/svg11.dtd">
<svg version="1.1" id="Layer_1" xmlns="http://www.w3.org/2000/svg" xmlns:xlink="http://www.w3.org/1999/xlink" x="0px" y="0px"
	 width="595.279px" height="841.891px" viewBox="0 0 595.279 841.891" enable-background="new 0 0 595.279 841.891"
	 xml:space="preserve">
<path display="none" fill="#F0E160" d="M586.732,261.443c0.194,0.788,0.364,1.612,0.364,2.448v127.891
	c0,3.346-1.818,6.45-4.68,8.087l-107.328,61.835v122.531c0,3.347-1.794,6.4-4.68,8.074L246.214,721.318
	c-0.521,0.289-1.067,0.482-1.636,0.652c-0.207,0.049-0.401,0.192-0.608,0.243c-1.563,0.46-3.223,0.46-4.765,0
	c-0.266-0.051-0.496-0.194-0.714-0.291c-0.522-0.219-1.066-0.364-1.564-0.604L12.875,592.313c-2.909-1.675-4.692-4.729-4.692-8.075
	v-383.78c0-0.825,0.121-1.637,0.339-2.438c0.073-0.291,0.255-0.521,0.351-0.8c0.146-0.486,0.352-0.983,0.57-1.431
	c0.097-0.327,0.376-0.545,0.57-0.824c0.303-0.4,0.521-0.765,0.825-1.115c0.291-0.243,0.618-0.449,0.908-0.667
	c0.352-0.304,0.679-0.594,1.019-0.849h0.025l112.068-64.491c2.861-1.661,6.438-1.661,9.311,0l112.044,64.491h0.048
	c0.376,0.255,0.667,0.521,1.019,0.824c0.291,0.219,0.619,0.449,0.922,0.667c0.315,0.351,0.521,0.715,0.812,1.115
	c0.195,0.279,0.498,0.522,0.619,0.825c0.278,0.472,0.425,0.945,0.593,1.43c0.085,0.279,0.279,0.534,0.328,0.801
	c0.254,0.775,0.351,1.587,0.351,2.437v239.667l93.359-53.736V263.844c0-0.812,0.122-1.637,0.365-2.425
	c0.048-0.279,0.193-0.522,0.339-0.801c0.171-0.497,0.341-0.97,0.581-1.467c0.146-0.291,0.461-0.521,0.607-0.812
	c0.292-0.376,0.509-0.751,0.799-1.067c0.316-0.303,0.631-0.497,0.923-0.704c0.364-0.267,0.631-0.57,1.02-0.788h0.048l112.058-64.516
	c2.884-1.661,6.425-1.661,9.312,0L582.37,255.78c0.388,0.243,0.679,0.521,1.067,0.764c0.291,0.255,0.604,0.448,0.871,0.691
	c0.34,0.352,0.534,0.727,0.849,1.104c0.194,0.291,0.461,0.521,0.606,0.812c0.268,0.498,0.438,0.971,0.56,1.467
	C586.49,260.897,586.636,261.165,586.732,261.443z M568.352,386.388V280.042l-39.187,22.54l-54.174,31.185v106.356L568.352,386.388z
	 M456.322,578.828V472.375l-53.277,30.433l-152.14,86.861v107.423L456.322,578.828z M26.806,216.594v362.234l205.428,118.264
	V589.669l-107.328-60.696l-0.048-0.098h-0.049c-0.351-0.267-0.618-0.508-0.993-0.776c-0.268-0.24-0.594-0.461-0.874-0.653
	l-0.024-0.048c-0.315-0.315-0.521-0.606-0.764-0.971c-0.254-0.316-0.521-0.558-0.69-0.923h-0.061
	c-0.193-0.361-0.315-0.75-0.497-1.163c-0.146-0.413-0.34-0.655-0.437-1.065c-0.109-0.461-0.157-0.923-0.206-1.433
	c-0.048-0.362-0.145-0.652-0.145-1.019v-250.47l-54.137-31.208L26.806,216.594z M129.502,146.72l-93.36,53.737l93.36,53.736
	l93.311-53.736L129.502,146.72z M178.073,482.051l54.185-31.186V216.594l-39.234,22.576l-54.185,31.185V504.65L178.073,482.051z
	 M465.681,210.144l-93.385,53.725l93.385,53.711l93.313-53.736L465.681,210.144z M456.322,333.767l-54.173-31.185l-39.213-22.54
	v106.346l54.196,31.184l39.188,22.551L456.322,333.767L456.322,333.767z M241.545,573.493l136.913-78.155l68.454-39.04
	l-93.311-53.688l-107.364,61.788l-97.858,56.378L241.545,573.493z"/>
<path display="none" fill="#F0E160" d="M303.563,535.283c-26.488,26.06-62.818,42.134-102.897,42.134
	c-81.042,0-146.75-65.709-146.75-146.75c0-81.042,65.708-146.75,146.75-146.75c40.963,0,78.01,16.792,104.629,43.853l34.597-34.585
	C304.411,257.261,255.137,235,200.667,235C92.599,235,5,322.599,5,430.667c0,108.056,87.599,195.666,195.667,195.666
	c53.586,0,102.145-21.545,137.483-56.44L303.563,535.283z"/>
<path display="none" fill="#F0E160" d="M371.875,357.292h-48.917v48.917h-48.917v48.917h48.917v48.917h48.917v-48.917h48.917
	v-48.917h-48.917V357.292z"/>
<path display="none" fill="#F0E160" d="M494.167,357.292h48.916v48.917H592v48.917h-48.917v48.917h-48.916v-48.917H445.25v-48.917
	h48.917V357.292z"/>
<path display="none" fill="none" stroke="#F0E160" stroke-width="20" d="M390.797,302.898V530.27 M481.745,302.898V530.27
	 M322.583,371.109h227.369 M322.583,462.058h227.369 M322.583,530.27l-18.298,9.148c-17.897,8.925-37.61,13.588-57.596,13.588
	c-71.1,0-128.74-57.643-128.74-128.761v-15.322c0-71.12,57.641-128.764,128.74-128.764c19.985,0,39.699,4.665,57.596,13.589
	l18.298,9.15 M27,553.006V280.159L299.847,121l272.848,159.159v272.847l-272.848,159.16L27,553.006z"/>
<g id="XMLID_7_">
	<path id="XMLID_8_" fill="#F0E160" d="M278.103,164.054c-33.933,23.856-72.38,50.903-92.988,95.654
		c-35.781,78.06,73.231,163.217,77.886,166.804c1.09,0.83,2.381,1.246,3.672,1.246c1.376,0,2.753-0.473,3.864-1.391
		c2.166-1.82,2.784-4.905,1.478-7.4c-0.393-0.761-39.523-76.769-38.068-131.293c0.517-18.994,27.098-40.534,55.233-63.344
		c25.772-20.895,54.985-44.571,72.066-72.272c37.53-60.971-4.174-120.931-4.59-121.526c-1.663-2.324-4.732-3.169-7.342-2.023
		c-2.612,1.155-4.045,3.98-3.457,6.77c0.086,0.394,8.189,40.04-14.369,80.891C322.179,133.048,301.758,147.418,278.103,164.054z"/>
	<path id="XMLID_9_" fill="#F0E160" d="M421.048,190.936c2.38-1.801,3.097-5.091,1.633-7.716c-1.434-2.624-4.588-3.779-7.399-2.717
		c-5.765,2.194-141.138,54.374-141.138,117.425c0,43.461,18.564,66.421,32.117,83.193c5.32,6.575,9.909,12.255,11.416,17.103
		c4.273,13.974-5.824,39.216-10.067,47.777c-1.221,2.452-0.632,5.436,1.463,7.243c1.118,0.96,2.524,1.463,3.929,1.463
		c1.206,0,2.395-0.375,3.441-1.092c2.323-1.62,56.878-40.183,47.098-86.67c-3.645-17.662-12.334-30.568-19.992-41.956
		c-11.859-17.646-20.437-30.395-7.429-53.937C351.35,243.597,420.344,191.459,421.048,190.936z"/>
	<path id="XMLID_10_" fill="#F0E160" d="M68.657,455.71c-2.323,6.939-1.226,13.825,3.163,19.934
		c14.677,20.364,66.657,31.579,146.379,31.579h0.007c10.799,0,22.208-0.199,33.888-0.63c127.453-4.562,174.735-44.259,176.684-45.95
		c2.121-1.836,2.683-4.903,1.362-7.372c-1.319-2.493-4.159-3.729-6.884-2.982c-44.887,12.248-128.711,16.607-186.851,16.607
		c-65.059,0-98.187-4.688-106.297-8.146c4.16-5.706,29.831-15.918,61.638-22.172c3.041-0.602,5.134-3.411,4.833-6.495
		c-0.301-3.082-2.889-5.437-5.994-5.437C171.942,424.646,78.429,426.137,68.657,455.71z"/>
	<path id="XMLID_11_" fill="#F0E160" d="M495.146,414.81c-26.286,0-51.211,13.164-52.273,13.738
		c-2.421,1.289-3.656,4.086-2.982,6.77c0.66,2.666,3.07,4.545,5.822,4.545c0.56,0.014,56.075,0.459,61.109,32.182
		c4.459,27.362-52.533,71.705-74.862,86.478c-2.423,1.591-3.34,4.688-2.223,7.357c0.947,2.263,3.156,3.685,5.536,3.685
		c0.431,0,0.832-0.045,1.263-0.129c5.306-1.147,129.643-28.539,116.508-100.947C545.012,424.115,517.133,414.81,495.146,414.81z"/>
	<path id="XMLID_12_" fill="#F0E160" d="M409.86,549.673c0.445-2.323-0.516-4.69-2.451-6.053l-29.816-20.881
		c-1.463-1.004-3.297-1.333-4.991-0.89c-0.313,0.087-31.491,8.288-76.766,13.31c-17.971,2.022-38.092,3.084-58.198,3.084
		c-45.26,0-74.853-5.322-79.163-9.223c-0.566-1.091-0.387-1.592-0.287-1.862c0.782-2.18,4.977-4.763,7.688-5.796
		c2.982-1.104,4.596-4.345,3.664-7.4c-0.925-3.039-4.065-4.847-7.17-4.101c-29.908,7.228-44.528,17.323-43.468,30.002
		c1.885,22.486,53.994,34.045,98.043,37.102c6.331,0.427,13.187,0.644,20.357,0.644c0.006,0,0.006,0,0.006,0
		c73.256,0,167.146-22.973,168.079-23.202C407.681,553.831,409.432,551.981,409.86,549.673z"/>
	<path id="XMLID_13_" fill="#F0E160" d="M185.078,597.944c2.259-1.463,3.263-4.259,2.46-6.826c-0.796-2.582-3.206-4.273-5.901-4.23
		c-4.009,0.1-39.224,1.691-41.69,24.108c-0.747,6.71,1.169,12.819,5.707,18.197c12.643,14.986,46.768,23.877,104.319,27.233
		c6.803,0.402,13.724,0.603,20.558,0.603c73.161,0,122.438-22.902,124.501-23.877c1.994-0.946,3.313-2.912,3.428-5.121
		c0.13-2.209-0.989-4.302-2.868-5.45l-37.673-23c-1.321-0.805-2.883-1.076-4.375-0.776c-0.242,0.06-24.165,5.021-60.276,9.924
		c-6.826,0.919-15.381,1.406-25.42,1.406c-36.066,0-76.186-5.907-83.879-9.753C183.859,599.651,184.002,598.747,185.078,597.944z"/>
	<path id="XMLID_14_" fill="#F0E160" d="M236.435,726.198c167.574-0.146,257.522-29.945,274.847-48.704
		c6.138-6.639,6.798-12.921,6.282-17.021c-1.291-10.098-10.499-16.263-11.53-16.952c-2.524-1.605-5.895-1.175-7.859,1.076
		c-1.95,2.266-2.008,5.579-0.028,7.829c1.047,1.362,1.663,3.628-1.434,6.727c-6.913,6.481-76.783,26.103-193.119,32.01
		c-15.926,0.832-32.64,1.248-49.663,1.263c-104.153,0-180.369-14.284-190.379-22.588c3.866-5.55,30.819-14.398,59.495-19.403
		c3.227-0.561,5.414-3.614,4.913-6.855c-0.502-3.24-3.485-5.464-6.755-5.034c-0.81,0.102-3.548,0.272-6.726,0.476
		C67.165,641.9,12.497,648.341,9.643,672.721c-0.867,7.427,1.341,14.167,6.561,20.033c12.779,14.355,49.498,33.43,220.223,33.43
		C236.426,726.198,236.426,726.198,236.435,726.198z"/>
	<path id="XMLID_15_" fill="#F0E160" d="M544.193,682.787c-2.366-1.09-5.162-0.546-6.926,1.362
		c-0.259,0.273-25.44,26.603-101.19,42.077c-29.014,5.808-83.451,8.762-161.818,8.762c-78.511,0-153.213-3.098-153.96-3.125
		c-3.119-0.146-5.786,2.121-6.217,5.19c-0.423,3.07,1.556,5.966,4.568,6.684c0.781,0.186,79.069,18.528,186.119,18.528
		c51.34,0,101.308-4.173,148.502-12.404c87.999-15.417,94.148-59.058,94.38-60.907C547.952,686.372,546.561,683.877,544.193,682.787
		z"/>
</g>
</svg>
