<?xml version="1.0" encoding="utf-8"?>
<!-- Generator: Adobe Illustrator 16.0.3, SVG Export Plug-In . SVG Version: 6.00 Build 0)  -->
<!DOCTYPE svg PUBLIC "-//W3C//DTD SVG 1.1//EN" "http://www.w3.org/Graphics/SVG/1.1/DTD/svg11.dtd">
<svg version="1.1" id="Layer_1" xmlns="http://www.w3.org/2000/svg" xmlns:xlink="http://www.w3.org/1999/xlink" x="0px" y="0px"
	 width="100px" height="100px" viewBox="0 0 100 100" enable-background="new 0 0 100 100" xml:space="preserve">
<g>
	<path fill="#F0E160" d="M44.75,36h10.6c0.801,0,1.4-0.6,1.4-1.4c0-0.4-0.1-0.7-0.4-1L43.15,20.4c-0.301-0.3-0.601-0.4-1-0.4
		c-0.801,0-1.4,0.6-1.4,1.4V32C40.75,34.2,42.55,36,44.75,36z"/>
	<path fill="#F0E160" d="M54.75,42h-14c-3.3,0-6-2.7-6-6V22c0-1.1-0.9-2-2-2h-20c-3.3,0-6,2.7-6,6v48c0,3.3,2.7,6,6,6h38
		c3.3,0,6-2.7,6-6V44C56.75,42.9,55.85,42,54.75,42z M19.55,66.3c0,2.9-1.4,3.9-3.6,3.9l-1.7-0.2l0.3-1.8l1.2,0.2c1,0,1.6-0.4,1.6-2
		v-6.5h2.2V66.3z M23.85,70c-1,0-2-0.2-2.9-0.6l0.6-1.801c0.8,0.4,1.6,0.601,2.5,0.601c1,0,1.6-0.4,1.6-1.101
		c0-0.699-0.5-1-1.7-1.399c-1.2-0.4-2.8-1.5-2.8-3s1.4-3,3.8-3c0.9,0,1.8,0.1,2.6,0.5l-0.5,1.8c-0.7-0.3-1.4-0.5-2.1-0.5
		c-1,0-1.5,0.5-1.5,1s0.6,0.9,1.9,1.4c1.3,0.5,2.6,1.6,2.6,3C27.95,68.3,26.65,70,23.85,70z"/>
</g>
</svg>
