<?xml version="1.0" encoding="utf-8"?>
<!-- Generator: Adobe Illustrator 16.0.3, SVG Export Plug-In . SVG Version: 6.00 Build 0)  -->
<!DOCTYPE svg PUBLIC "-//W3C//DTD SVG 1.1//EN" "http://www.w3.org/Graphics/SVG/1.1/DTD/svg11.dtd">
<svg version="1.1" id="Layer_1" xmlns="http://www.w3.org/2000/svg" xmlns:xlink="http://www.w3.org/1999/xlink" x="0px" y="0px"
	 width="595.279px" height="841.891px" viewBox="0 0 595.279 841.891" enable-background="new 0 0 595.279 841.891"
	 xml:space="preserve">
<path fill="#F0E160" d="M586.732,261.443c0.195,0.788,0.365,1.612,0.365,2.448v127.891c0,3.346-1.819,6.45-4.68,8.087
	l-107.328,61.835v122.531c0,3.347-1.794,6.401-4.68,8.075L246.214,721.318c-0.521,0.289-1.067,0.483-1.636,0.653
	c-0.207,0.049-0.401,0.192-0.608,0.243c-1.563,0.46-3.223,0.46-4.765,0c-0.266-0.051-0.496-0.194-0.714-0.291
	c-0.522-0.219-1.066-0.364-1.564-0.605L12.875,592.312c-2.909-1.674-4.692-4.729-4.692-8.075V200.457
	c0-0.825,0.121-1.637,0.339-2.438c0.073-0.291,0.255-0.521,0.351-0.8c0.146-0.486,0.352-0.983,0.57-1.431
	c0.097-0.327,0.376-0.545,0.57-0.824c0.303-0.4,0.521-0.765,0.825-1.115c0.291-0.243,0.618-0.449,0.908-0.667
	c0.352-0.304,0.679-0.594,1.019-0.849h0.025l112.068-64.491c2.861-1.661,6.438-1.661,9.311,0l112.044,64.491h0.048
	c0.376,0.255,0.667,0.521,1.019,0.824c0.291,0.219,0.619,0.449,0.922,0.667c0.315,0.351,0.521,0.715,0.812,1.115
	c0.195,0.279,0.498,0.522,0.619,0.825c0.278,0.472,0.425,0.945,0.593,1.43c0.085,0.279,0.279,0.534,0.328,0.801
	c0.254,0.775,0.351,1.587,0.351,2.437v239.667l93.359-53.736V263.844c0-0.812,0.122-1.637,0.365-2.425
	c0.048-0.279,0.193-0.522,0.339-0.801c0.171-0.497,0.341-0.97,0.581-1.467c0.146-0.291,0.461-0.521,0.607-0.812
	c0.292-0.376,0.509-0.751,0.799-1.067c0.316-0.303,0.631-0.497,0.923-0.704c0.364-0.267,0.631-0.57,1.019-0.788h0.048
	l112.058-64.516c2.884-1.661,6.425-1.661,9.311,0l112.056,64.516c0.388,0.243,0.679,0.521,1.067,0.764
	c0.291,0.255,0.604,0.448,0.872,0.691c0.339,0.352,0.534,0.727,0.848,1.104c0.195,0.291,0.461,0.521,0.607,0.812
	c0.267,0.498,0.437,0.971,0.559,1.467C586.49,260.897,586.636,261.165,586.732,261.443z M568.352,386.388V280.042l-39.187,22.54
	l-54.174,31.185v106.356L568.352,386.388z M456.322,578.828V472.375l-53.277,30.433l-152.14,86.861v107.423L456.322,578.828z
	 M26.806,216.594v362.234l205.428,118.264V589.669l-107.328-60.696l-0.048-0.098h-0.049c-0.351-0.267-0.618-0.508-0.993-0.776
	c-0.268-0.241-0.594-0.461-0.874-0.654l-0.024-0.048c-0.315-0.315-0.521-0.606-0.764-0.97c-0.254-0.317-0.521-0.558-0.69-0.923
	h-0.061c-0.193-0.362-0.315-0.75-0.497-1.163c-0.146-0.413-0.34-0.656-0.437-1.066c-0.109-0.461-0.157-0.923-0.206-1.432
	c-0.048-0.363-0.145-0.653-0.145-1.019v-250.47l-54.137-31.208L26.806,216.594z M129.502,146.72l-93.36,53.737l93.36,53.736
	l93.311-53.736L129.502,146.72z M178.073,482.051l54.185-31.186V216.594l-39.234,22.576l-54.185,31.185v234.295L178.073,482.051z
	 M465.681,210.144l-93.385,53.725l93.385,53.711l93.312-53.736L465.681,210.144z M456.322,333.767l-54.173-31.185l-39.212-22.54
	v106.346l54.196,31.184l39.188,22.551V333.767z M241.545,573.493l136.913-78.155l68.454-39.04l-93.31-53.688l-107.364,61.788
	l-97.858,56.378L241.545,573.493z"/>
</svg>
