<?xml version="1.0" encoding="utf-8"?>
<!-- Generator: Adobe Illustrator 16.0.3, SVG Export Plug-In . SVG Version: 6.00 Build 0)  -->
<!DOCTYPE svg PUBLIC "-//W3C//DTD SVG 1.1//EN" "http://www.w3.org/Graphics/SVG/1.1/DTD/svg11.dtd">
<svg version="1.1" id="Layer_1" xmlns="http://www.w3.org/2000/svg" xmlns:xlink="http://www.w3.org/1999/xlink" x="0px" y="0px"
	 width="24px" height="24px" viewBox="0 0 24 24" enable-background="new 0 0 24 24" xml:space="preserve">
<title>Laravel icon</title>
<path fill="#F0E160" d="M23.645,5.43c0.008,0.032,0.014,0.065,0.014,0.099v5.15c0,0.135-0.073,0.26-0.189,0.326l-4.322,2.49v4.935
	c0,0.135-0.072,0.258-0.188,0.325L9.931,23.95c-0.021,0.012-0.043,0.02-0.066,0.026c-0.008,0.002-0.016,0.008-0.024,0.01
	c-0.063,0.019-0.13,0.019-0.192,0c-0.011-0.002-0.02-0.008-0.029-0.012c-0.021-0.008-0.043-0.014-0.063-0.024l-9.023-5.195
	c-0.117-0.067-0.189-0.19-0.189-0.325V2.974c0-0.033,0.005-0.066,0.014-0.098c0.003-0.012,0.01-0.021,0.014-0.032
	c0.006-0.02,0.014-0.04,0.023-0.058C0.4,2.773,0.411,2.764,0.419,2.753C0.431,2.737,0.44,2.722,0.452,2.708
	c0.012-0.01,0.025-0.018,0.037-0.027C0.503,2.669,0.516,2.657,0.53,2.647h0.001L5.044,0.05c0.115-0.067,0.259-0.067,0.375,0
	l4.512,2.597h0.002C9.948,2.657,9.96,2.668,9.974,2.68c0.012,0.009,0.025,0.018,0.037,0.027c0.013,0.014,0.021,0.029,0.033,0.045
	c0.008,0.011,0.02,0.021,0.025,0.033c0.011,0.019,0.017,0.038,0.024,0.058c0.003,0.011,0.011,0.021,0.013,0.032
	c0.01,0.031,0.014,0.064,0.014,0.098v9.652l3.76-2.164V5.527c0-0.033,0.005-0.066,0.015-0.098c0.002-0.011,0.008-0.021,0.013-0.032
	c0.007-0.02,0.014-0.039,0.024-0.059c0.006-0.012,0.018-0.021,0.024-0.033c0.012-0.015,0.021-0.03,0.032-0.043
	c0.013-0.012,0.025-0.02,0.037-0.028c0.015-0.011,0.026-0.023,0.041-0.032h0.002l4.513-2.598c0.116-0.067,0.259-0.067,0.375,0
	l4.513,2.598c0.016,0.01,0.027,0.021,0.043,0.031c0.012,0.01,0.024,0.018,0.035,0.028c0.014,0.014,0.021,0.029,0.034,0.044
	c0.008,0.012,0.019,0.021,0.024,0.033c0.011,0.02,0.018,0.039,0.023,0.059C23.635,5.408,23.641,5.419,23.645,5.43z M22.904,10.462
	V6.179l-1.578,0.908l-2.182,1.256v4.283L22.904,10.462z M18.393,18.212v-4.287l-2.146,1.226l-6.127,3.498v4.326L18.393,18.212z
	 M1.095,3.624v14.588l8.273,4.763v-4.326l-4.322-2.445L5.044,16.2H5.042c-0.014-0.011-0.025-0.021-0.04-0.031
	c-0.011-0.01-0.024-0.019-0.035-0.026l-0.001-0.002c-0.013-0.013-0.021-0.025-0.031-0.039c-0.01-0.013-0.021-0.023-0.028-0.037
	H4.905c-0.008-0.015-0.013-0.031-0.02-0.047c-0.006-0.017-0.014-0.027-0.018-0.043c-0.004-0.019-0.006-0.037-0.008-0.058
	c-0.002-0.015-0.006-0.026-0.006-0.041V5.789l-2.18-1.257L1.095,3.624z M5.231,0.81l-3.76,2.164l3.76,2.164l3.758-2.164L5.231,0.81z
	 M7.187,14.314l2.182-1.256V3.624l-1.58,0.909L5.607,5.789v9.436L7.187,14.314z M18.77,3.364l-3.761,2.164l3.761,2.163l3.758-2.164
	L18.77,3.364z M18.393,8.343l-2.182-1.256l-1.579-0.908v4.283l2.183,1.256l1.578,0.908V8.343z M9.743,17.997l5.514-3.147
	l2.757-1.572l-3.758-2.163l-4.324,2.489l-3.941,2.27L9.743,17.997z"/>
</svg>
