<?xml version="1.0" encoding="utf-8"?>
<!-- Generator: Adobe Illustrator 16.0.3, SVG Export Plug-In . SVG Version: 6.00 Build 0)  -->
<!DOCTYPE svg PUBLIC "-//W3C//DTD SVG 1.1//EN" "http://www.w3.org/Graphics/SVG/1.1/DTD/svg11.dtd">
<svg version="1.1" id="Layer_1" xmlns="http://www.w3.org/2000/svg" xmlns:xlink="http://www.w3.org/1999/xlink" x="0px" y="0px"
	 width="595.279px" height="841.891px" viewBox="0 0 595.279 841.891" enable-background="new 0 0 595.279 841.891"
	 xml:space="preserve">
<g>
	<path fill="#6B9688" d="M322.366,390.658v-0.87c-0.178,0.292-0.424,0.583-0.578,0.87H322.366z"/>
	<path fill="#6B9688" d="M0,123.305v595.28H595.28v-595.28H0z M185.155,617.848H96.836V352.136h88.318V617.848z M140.995,315.87
		h-0.584c-29.626,0-48.83-20.411-48.83-45.923c0-26.072,19.765-45.905,49.992-45.905c30.233,0,48.813,19.833,49.391,45.905
		C190.964,295.458,171.807,315.87,140.995,315.87z M503.698,617.848h-88.342V475.691c0-35.705-12.765-60.078-44.738-60.078
		c-24.418,0-38.929,16.41-45.321,32.307c-2.323,5.678-2.931,13.571-2.931,21.533V617.85h-88.358c0,0,1.184-240.785,0-265.712h88.358
		v37.652c11.74-18.064,32.689-43.89,79.619-43.89c58.137,0,101.713,37.967,101.713,119.576V617.848z"/>
</g>
</svg>
