<?xml version="1.0" encoding="utf-8"?>
<!-- Generator: Adobe Illustrator 16.0.3, SVG Export Plug-In . SVG Version: 6.00 Build 0)  -->
<!DOCTYPE svg PUBLIC "-//W3C//DTD SVG 1.1//EN" "http://www.w3.org/Graphics/SVG/1.1/DTD/svg11.dtd">
<svg version="1.1" id="Layer_1" xmlns="http://www.w3.org/2000/svg" xmlns:xlink="http://www.w3.org/1999/xlink" x="0px" y="0px"
	 width="595.279px" height="841.891px" viewBox="0 0 595.279 841.891" enable-background="new 0 0 595.279 841.891"
	 xml:space="preserve">
<g>
	<path fill="#F0E160" d="M297.64,123.305c-124.161,0-225.173,101.014-225.173,225.174c0,51.214,35.301,126.104,104.92,222.593
		c50.333,69.758,99.854,124.873,101.936,127.187l18.319,20.329l18.318-20.329c2.083-2.312,51.604-57.429,101.936-127.187
		c69.62-96.488,104.921-171.378,104.921-222.593C522.815,224.318,421.802,123.305,297.64,123.305z M297.64,644.33
		c-62.026-72.513-175.858-221.049-175.858-295.852c0-96.968,78.889-175.859,175.858-175.859s175.858,78.891,175.858,175.859
		C473.5,423.281,359.666,571.817,297.64,644.33L297.64,644.33z"/>
	<circle fill="#F0E160" cx="297.64" cy="348.48" r="81.692"/>
</g>
</svg>
