<?xml version="1.0" encoding="utf-8"?>
<!-- Generator: Adobe Illustrator 16.0.3, SVG Export Plug-In . SVG Version: 6.00 Build 0)  -->
<!DOCTYPE svg PUBLIC "-//W3C//DTD SVG 1.1//EN" "http://www.w3.org/Graphics/SVG/1.1/DTD/svg11.dtd">
<svg version="1.1" id="Layer_1" xmlns="http://www.w3.org/2000/svg" xmlns:xlink="http://www.w3.org/1999/xlink" x="0px" y="0px"
	 width="595.279px" height="841.891px" viewBox="0 0 595.279 841.891" enable-background="new 0 0 595.279 841.891"
	 xml:space="preserve">
<g>
	<g>
		<g>
			<path fill="#F0E160" d="M68.708,304.858l133.753,116.086L68.708,537.031c-8.047,6.984-8.91,19.169-1.925,27.217
				c6.984,8.047,19.169,8.907,27.216,1.925l137.896-119.681l53.1,46.085c3.627,3.148,8.137,4.722,12.646,4.722
				s9.018-1.573,12.646-4.722l53.1-46.085l137.896,119.681c8.047,6.983,20.231,6.122,27.217-1.925
				c6.984-8.048,6.122-20.232-1.925-27.217L392.821,420.944l133.753-116.086c8.048-6.985,8.909-19.169,1.925-27.217
				c-6.985-8.048-19.173-8.909-27.217-1.925c-11.22,9.737-191.695,166.374-203.641,176.742
				c-11.95-10.371-192.426-167.007-203.642-176.742c-8.047-6.984-20.232-6.121-27.216,1.925
				C59.798,285.688,60.661,297.873,68.708,304.858z"/>
			<path fill="#F0E160" d="M575.989,205.774H19.292C8.638,205.774,0,214.413,0,225.067v391.755c0,10.656,8.638,19.293,19.292,19.293
				h556.695c10.655,0,19.292-8.637,19.292-19.293V225.067C595.281,214.413,586.645,205.774,575.989,205.774z M556.697,597.529
				L556.697,597.529H38.586V244.36h518.11V597.529z"/>
		</g>
	</g>
</g>
</svg>
