<?xml version="1.0" encoding="utf-8"?>
<!-- Generator: Adobe Illustrator 16.0.3, SVG Export Plug-In . SVG Version: 6.00 Build 0)  -->
<!DOCTYPE svg PUBLIC "-//W3C//DTD SVG 1.1//EN" "http://www.w3.org/Graphics/SVG/1.1/DTD/svg11.dtd">
<svg version="1.1" id="Layer_1" xmlns="http://www.w3.org/2000/svg" xmlns:xlink="http://www.w3.org/1999/xlink" x="0px" y="0px"
	 width="595.279px" height="841.891px" viewBox="0 0 595.279 841.891" enable-background="new 0 0 595.279 841.891"
	 xml:space="preserve">
<g>
	<g>
		<path fill="#F0E160" d="M297.64,123.305c-87.843,0-181.172,27.202-181.172,77.646v232.936c0,50.987,91.13,77.646,181.172,77.646
			c90.041,0,181.171-26.658,181.171-77.646V200.95C478.812,150.506,385.483,123.305,297.64,123.305z M452.93,433.886
			c0,24.483-63.772,51.764-155.29,51.764c-91.519,0-155.291-27.278-155.291-51.764V397.6c33.828,23.76,95.763,36.286,155.291,36.286
			s121.462-12.526,155.29-36.286V433.886z M452.93,356.241c0,21.611-59.088,51.763-155.29,51.763
			c-96.203,0-155.291-30.151-155.291-51.763v-36.286c33.828,23.76,95.763,36.286,155.291,36.286s121.462-12.526,155.29-36.286
			V356.241z M452.93,278.595c0,21.611-59.088,51.764-155.29,51.764c-96.203,0-155.291-30.152-155.291-51.764V242.31
			c33.828,23.759,95.763,36.286,155.291,36.286s121.462-12.526,155.29-36.286V278.595z M297.64,252.714
			c-96.203,0-155.291-30.152-155.291-51.764c0-21.611,59.088-51.764,155.291-51.764c96.202,0,155.29,30.151,155.29,51.764
			C452.93,222.561,393.842,252.714,297.64,252.714z"/>
	</g>
</g>
<g>
	<g>
		<path fill="#F0E160" d="M301.677,589.668l-3.83-0.647c-22.698-3.701-26.089-9.603-26.089-12.785
			c0-5.15,10.327-12.941,25.908-12.941c15.296,0,25.39,7.272,25.908,12.501c0.673,7.117,6.962,12.604,14.105,11.646
			c7.118-0.674,12.32-6.988,11.646-14.106c-1.966-20.498-24.173-35.949-51.686-35.949c-29.039,0-51.789,17.057-51.789,38.822
			c0,20.266,16.072,33.154,47.804,38.331l2.097-12.759l1.733,13.407c21.508,3.546,26.011,8.929,26.011,12.812
			c0,5.149-10.327,12.941-25.908,12.941c-15.296,0-25.39-7.299-25.907-12.526c-0.674-7.118-6.808-12.424-14.106-11.647
			c-7.118,0.674-12.32,6.988-11.646,14.106c1.968,20.497,24.174,35.948,51.687,35.948c29.039,0,51.789-17.057,51.789-38.822
			C349.404,607.759,333.356,594.87,301.677,589.668z"/>
	</g>
</g>
<g>
	<g>
		<path fill="#F0E160" d="M478.812,576.235c0-21.405-17.418-38.823-38.822-38.823h-25.881c-21.405,0-38.823,17.418-38.823,38.823
			v51.764c0,21.404,17.418,38.822,38.823,38.822h25.881c5.979,0,11.569-1.476,16.616-3.882l0.104,0.103
			c2.536,2.511,5.849,3.779,9.162,3.779c3.313,0,6.625-1.268,9.137-3.779c5.047-5.047,5.047-13.252,0-18.299l-0.104-0.103
			c2.433-5.047,3.908-10.663,3.908-16.642L478.812,576.235L478.812,576.235z M452.93,622.667l-3.805-3.805
			c-5.047-5.047-13.252-5.047-18.299,0s-5.047,13.252,0,18.299l3.779,3.779h-20.499c-7.143,0-12.94-5.798-12.94-12.941v-51.764
			c0-7.144,5.798-12.941,12.94-12.941h25.882c7.144,0,12.941,5.798,12.941,12.941V622.667z"/>
	</g>
</g>
<g>
	<g>
		<path fill="#F0E160" d="M569.398,640.94h-38.823v-90.587c0-7.144-5.798-12.941-12.94-12.941c-7.144,0-12.941,5.798-12.941,12.941
			V653.88c0,7.144,5.798,12.941,12.941,12.941h51.764c7.144,0,12.941-5.798,12.941-12.941S576.541,640.94,569.398,640.94z"/>
	</g>
</g>
<g>
	<g>
		<path fill="#F0E160" d="M212.851,590.521c-6.419-3.184-14.157-0.596-17.367,5.798l-14.312,28.651l-14.313-28.626
			c-3.209-6.393-10.974-8.981-17.367-5.798c-6.393,3.209-9.007,10.974-5.798,17.367l23.009,45.991l-22.983,45.94
			c-3.184,6.393-0.596,14.157,5.798,17.367c1.863,0.932,3.83,1.372,5.771,1.372c4.736,0,9.292-2.614,11.595-7.169l51.764-103.526
			C221.832,601.496,219.244,593.731,212.851,590.521z"/>
	</g>
</g>
<g>
	<g>
		<path fill="#F0E160" d="M107.616,538.086c-5.255-1.786-11.104,0.052-14.442,4.503l-28.47,37.943l-28.47-37.943
			c-3.339-4.451-9.109-6.289-14.441-4.503c-5.28,1.76-8.852,6.703-8.852,12.268V653.88c0,7.144,5.798,12.941,12.94,12.941
			c7.144,0,12.94-5.798,12.94-12.941v-64.704l15.529,20.706c4.892,6.522,15.84,6.522,20.706,0l15.528-20.706v64.704
			c0,7.144,5.798,12.941,12.941,12.941s12.94-5.798,12.94-12.941V550.354C116.468,544.789,112.896,539.846,107.616,538.086z"/>
	</g>
</g>
</svg>
