<?xml version="1.0" encoding="utf-8"?>
<!-- Generator: Adobe Illustrator 16.0.3, SVG Export Plug-In . SVG Version: 6.00 Build 0)  -->
<!DOCTYPE svg PUBLIC "-//W3C//DTD SVG 1.1//EN" "http://www.w3.org/Graphics/SVG/1.1/DTD/svg11.dtd">
<svg version="1.1" id="Layer_1" xmlns="http://www.w3.org/2000/svg" xmlns:xlink="http://www.w3.org/1999/xlink" x="0px" y="0px"
	 width="24px" height="24px" viewBox="0 0 24 24" enable-background="new 0 0 24 24" xml:space="preserve">
<title>Adobe Photoshop icon</title>
<path fill="#F0E160" d="M9.85,8.42c-0.37-0.15-0.77-0.21-1.18-0.2c-0.26,0-0.49,0-0.68,0.01c-0.2-0.01-0.34,0-0.41,0.01v3.36
	c0.14,0.01,0.27,0.02,0.39,0.02H8.5c0.39,0,0.78-0.06,1.15-0.18c0.32-0.09,0.6-0.28,0.82-0.53c0.21-0.25,0.31-0.59,0.31-1.03
	c0.01-0.31-0.07-0.62-0.23-0.89C10.38,8.73,10.14,8.53,9.85,8.42z M19.75,0.3H4.25C1.9,0.3,0,2.2,0,4.55v14.899
	c0,2.35,1.9,4.25,4.25,4.25h15.5c2.35,0,4.25-1.9,4.25-4.25V4.55C24,2.2,22.1,0.3,19.75,0.3z M12.359,11.95
	c-0.399,0.56-0.959,0.979-1.609,1.22c-0.68,0.25-1.43,0.34-2.25,0.34c-0.24,0-0.4,0-0.5-0.01s-0.24-0.01-0.43-0.01v3.209
	c0.01,0.07-0.04,0.131-0.11,0.141H5.52c-0.08,0-0.12-0.041-0.12-0.131V6.42c0-0.07,0.03-0.11,0.1-0.11c0.17,0,0.33,0,0.56-0.01
	C6.3,6.29,6.55,6.29,6.82,6.28C7.09,6.27,7.38,6.27,7.69,6.26C8,6.25,8.3,6.25,8.6,6.25c0.82,0,1.5,0.1,2.06,0.31
	c0.5,0.17,0.96,0.45,1.34,0.82c0.32,0.32,0.57,0.71,0.73,1.14c0.148,0.42,0.229,0.85,0.229,1.3
	C12.96,10.68,12.76,11.39,12.359,11.95z M19.45,15.84c-0.28,0.4-0.671,0.709-1.12,0.891c-0.49,0.209-1.09,0.318-1.811,0.318
	c-0.459,0-0.91-0.039-1.359-0.129c-0.35-0.061-0.7-0.17-1.02-0.32c-0.07-0.039-0.121-0.108-0.111-0.188v-1.74
	c0-0.028,0.011-0.069,0.041-0.09c0.029-0.021,0.06-0.011,0.09,0.01c0.39,0.229,0.8,0.392,1.24,0.49
	c0.379,0.101,0.779,0.149,1.18,0.149c0.38,0,0.65-0.051,0.83-0.141c0.16-0.07,0.27-0.24,0.27-0.42c0-0.141-0.08-0.27-0.24-0.4
	c-0.16-0.129-0.488-0.278-0.979-0.471c-0.51-0.18-0.979-0.42-1.42-0.719c-0.311-0.221-0.568-0.51-0.762-0.85
	c-0.158-0.32-0.238-0.67-0.229-1.021c0-0.43,0.12-0.84,0.342-1.21c0.25-0.4,0.619-0.72,1.049-0.92C15.91,8.84,16.5,8.73,17.21,8.73
	c0.41,0,0.83,0.03,1.24,0.09c0.3,0.04,0.59,0.12,0.86,0.23c0.039,0.01,0.08,0.05,0.1,0.09c0.01,0.04,0.02,0.08,0.02,0.12v1.63
	c0,0.04-0.02,0.08-0.05,0.1c-0.09,0.02-0.14,0.02-0.18,0c-0.3-0.16-0.62-0.27-0.96-0.34c-0.37-0.08-0.74-0.13-1.12-0.13
	c-0.2-0.01-0.41,0.02-0.601,0.07c-0.129,0.03-0.24,0.1-0.311,0.2c-0.05,0.08-0.08,0.18-0.08,0.27s0.04,0.18,0.102,0.26
	c0.09,0.11,0.209,0.2,0.34,0.27c0.229,0.12,0.47,0.23,0.709,0.33c0.541,0.18,1.061,0.43,1.541,0.73c0.33,0.209,0.6,0.49,0.789,0.83
	c0.16,0.317,0.24,0.67,0.229,1.028C19.85,14.98,19.71,15.449,19.45,15.84z"/>
</svg>
