<?xml version="1.0" encoding="utf-8"?>
<!-- Generator: Adobe Illustrator 16.0.3, SVG Export Plug-In . SVG Version: 6.00 Build 0)  -->
<!DOCTYPE svg PUBLIC "-//W3C//DTD SVG 1.1//EN" "http://www.w3.org/Graphics/SVG/1.1/DTD/svg11.dtd">
<svg version="1.1" id="Layer_1" xmlns="http://www.w3.org/2000/svg" xmlns:xlink="http://www.w3.org/1999/xlink" x="0px" y="0px"
	 width="595.279px" height="841.891px" viewBox="0 0 595.279 841.891" enable-background="new 0 0 595.279 841.891"
	 xml:space="preserve">
<g>
	<g>
		<g>
			<path fill="#F0E160" d="M570.477,520.158v-297.64c0-27.39-22.217-49.607-49.606-49.607H74.41
				c-27.391,0-49.607,22.217-49.607,49.607v297.64C11.105,520.158,0,531.264,0,544.962v74.41c0,27.39,22.217,49.607,49.606,49.607
				h496.067c27.39,0,49.607-22.218,49.607-49.607v-74.41C595.28,531.264,584.175,520.158,570.477,520.158z M74.41,222.518h446.46
				v297.64H372.05c-6.578,0-12.887,2.613-17.539,7.264l-17.538,17.539h-78.665l-17.539-17.539
				c-4.651-4.651-10.96-7.264-17.539-7.264H74.41V222.518z M545.673,619.372H49.607v-49.606h163.351l17.538,17.538
				c4.652,4.652,10.961,7.265,17.539,7.265h99.213c6.578,0,12.887-2.614,17.538-7.265l17.539-17.538h163.35L545.673,619.372
				L545.673,619.372z"/>
			<path fill="#F0E160" d="M267.702,420.942c5.209,0,9.4-4.217,9.4-9.399v-28.226h37.651v28.226c0,5.184,4.191,9.399,9.4,9.399
				c5.208,0,9.399-4.217,9.399-9.399v-75.279c0-5.184-4.191-9.4-9.399-9.4c-5.209,0-9.4,4.217-9.4,9.4v28.226h-37.651v-28.226
				c0-5.184-4.191-9.4-9.4-9.4c-5.208,0-9.399,4.217-9.399,9.4v75.279C258.302,416.726,262.494,420.942,267.702,420.942z"/>
			<path fill="#F0E160" d="M234.781,357.443c0-16.867-13.716-30.583-30.583-30.583h-21.157c-5.208,0-9.425,4.217-9.425,9.4v75.278
				c0,5.185,4.217,9.4,9.425,9.4c5.185,0,9.4-4.217,9.4-9.4v-23.514h11.757C221.066,388.025,234.781,374.31,234.781,357.443z
				 M204.198,369.2h-11.757v-23.513h11.757c6.498,0,11.757,5.258,11.757,11.756C215.955,363.917,210.697,369.2,204.198,369.2z"/>
			<path fill="#F0E160" d="M371.207,420.94c5.184,0,9.399-4.217,9.399-9.4v-23.513h11.757c16.867,0,30.583-13.716,30.583-30.583
				s-13.716-30.583-30.583-30.583h-21.156c-5.209,0-9.426,4.217-9.426,9.4v75.278C361.781,416.724,365.998,420.94,371.207,420.94z
				 M380.607,345.687h11.757c6.498,0,11.757,5.258,11.757,11.756c0,6.474-5.259,11.757-11.757,11.757h-11.757V345.687z"/>
		</g>
	</g>
</g>
</svg>
