<?xml version="1.0" encoding="utf-8"?>
<!-- Generator: Adobe Illustrator 16.0.3, SVG Export Plug-In . SVG Version: 6.00 Build 0)  -->
<!DOCTYPE svg PUBLIC "-//W3C//DTD SVG 1.1//EN" "http://www.w3.org/Graphics/SVG/1.1/DTD/svg11.dtd">
<svg version="1.1" id="Layer_1" xmlns="http://www.w3.org/2000/svg" xmlns:xlink="http://www.w3.org/1999/xlink" x="0px" y="0px"
	 width="595.279px" height="841.891px" viewBox="0 0 595.279 841.891" enable-background="new 0 0 595.279 841.891"
	 xml:space="preserve">
<g display="none">
	<path display="inline" fill="#F0E160" d="M438.278,268.368H547.75c8.27,0,14.463-6.196,14.463-14.458
		c0-4.129-1.027-7.231-4.136-10.327L421.756,107.252c-3.104-3.096-6.202-4.13-10.326-4.13c-8.271,0-14.465,6.197-14.465,14.458
		v109.477C396.965,249.78,415.553,268.368,438.278,268.368z"/>
	<path display="inline" fill="#F0E160" d="M541.554,330.336h-144.59c-34.079,0-61.967-27.887-61.967-61.968v-144.59
		c0-11.362-9.3-20.656-20.655-20.656H107.784c-34.081,0-61.968,27.887-61.968,61.968v495.739c0,34.079,27.887,61.967,61.968,61.967
		h392.46c34.079,0,61.968-27.888,61.968-61.967V350.992C562.213,339.63,552.914,330.336,541.554,330.336z M178.012,581.302
		c0,29.955-14.458,40.282-37.176,40.282l-17.561-2.065l3.097-18.59l12.396,2.068c10.327,0,16.526-4.137,16.526-20.656V515.21h22.718
		V581.302z M222.425,619.519c-10.328,0-20.654-2.068-29.949-6.192l6.193-18.601c8.264,4.136,16.525,6.203,25.818,6.203
		c10.328,0,16.526-4.136,16.526-11.366c0-7.222-5.164-10.326-17.555-14.452c-12.395-4.138-28.92-15.493-28.92-30.983
		c0-15.493,14.458-30.985,39.249-30.985c9.295,0,18.588,1.03,26.849,5.165l-5.164,18.587c-7.227-3.095-14.459-5.163-21.685-5.163
		c-10.329,0-15.491,5.163-15.491,10.328c0,5.163,6.191,9.3,19.621,14.463c13.425,5.165,26.854,16.521,26.854,30.983
		C264.77,601.959,251.341,619.519,222.425,619.519z"/>
</g>
<path fill="#F0E160" d="M338.284,150.687c-146.411-18.71-280.311,84.645-299.086,231.065
	c-18.71,146.402,84.645,280.311,231.065,299.086c146.402,18.71,280.312-84.645,298.989-231.064
	C588.042,303.362,484.721,169.462,338.284,150.687z M393.273,317.464c-4.958,0-9.672,1.999-13.147,5.562l-99.17,99.082l-6.867-6.795
	l-14.282-14.347c97.711-97.433,115.377-98.404,133.452-83.519L393.273,317.464z M285.049,425.664l98.829-98.901
	c5.465-5.742,14.616-5.661,20.097,0.082c5.399,5.832,4.862,14.975-1.207,19.999l-104.66,91.871L285.049,425.664z M292.366,441.177
	l-24.543,5.286c-0.513,0.081-1.199-0.18-1.467-0.783c-0.27-0.539-0.188-1.143,0.269-1.6l14.348-14.338L292.366,441.177z
	 M229.89,430.917l26.197-26.116l19.574,19.575l-44.117,9.477c-0.782,0.18-1.549-0.146-1.916-0.864
	C229.205,432.304,229.375,431.422,229.89,430.917z M148.727,565.836c-0.954-0.098-1.672-0.963-1.59-1.826
	c0.09-0.426,0.27-0.784,0.539-1.044h0.082l21.051-21.06l27.241,27.258L148.727,565.836z M202.729,537.813
	c-2.071,1.141-3.123,3.49-2.602,5.741l4.526,19.248c0.719,2.806-2.691,4.682-4.697,2.61h-0.082l-27.306-27.323l83.779-83.699
	l40.545-8.776l19.387,19.494c-27.927,24.517-66.13,48.969-113.534,72.705H202.729z M320.293,461.534l-18.712-18.71l104.645-91.871
	c0.964-0.873,1.827-1.827,2.611-2.79C405.639,378.098,363.683,420.37,320.293,461.534z M401.807,317.628h-0.083
	c-36.474-36.629,15.041-92.923,54.712-59.867l-35.822,35.944c-1.044,1.02-1.044,2.79,0,3.81l27.748,27.78
	C432.783,333.026,414.09,329.902,401.807,317.628z M459.144,317.628c-1.827,1.818-3.835,3.474-6.003,4.861l-26.884-26.875
	l34.094-34.199C475.129,277.523,474.542,302.229,459.144,317.628z M456.956,283.266c-1.124,0.791-1.564,2.153-1.207,3.474
	c1.647,3.295,1.207,7.219-1.142,10.008c-1.141,1.403-0.863,3.328,0.523,4.429c0.521,0.35,1.142,0.611,1.825,0.611
	c0.947,0,1.844-0.342,2.351-1.043c3.915-4.698,4.696-11.313,1.988-16.793C460.251,282.564,458.359,282.213,456.956,283.266z"/>
</svg>
