<?xml version="1.0" encoding="utf-8"?>
<!-- Generator: Adobe Illustrator 16.0.3, SVG Export Plug-In . SVG Version: 6.00 Build 0)  -->
<!DOCTYPE svg PUBLIC "-//W3C//DTD SVG 1.1//EN" "http://www.w3.org/Graphics/SVG/1.1/DTD/svg11.dtd">
<svg version="1.1" id="Capa_1" xmlns="http://www.w3.org/2000/svg" xmlns:xlink="http://www.w3.org/1999/xlink" x="0px" y="0px"
	 width="595.279px" height="841.891px" viewBox="0 0 595.279 841.891" enable-background="new 0 0 595.279 841.891"
	 xml:space="preserve">
<path fill="#F0E160" d="M244.202,331.973c-9.199-3.726-19.139-5.219-29.333-4.976c-6.457,0-12.173,0-16.895,0.254
	c-4.976-0.254-8.458,0-10.194,0.255v83.511c3.483,0.243,6.711,0.498,9.697,0.498h13.168c9.696,0,19.381-1.493,28.581-4.479
	c7.962-2.233,14.916-6.954,20.39-13.168c5.218-6.214,7.694-14.673,7.694-25.608c0.254-7.707-1.736-15.413-5.717-22.113
	C257.371,339.679,251.412,334.716,244.202,331.973z M490.269,130.144H105.01c-58.413,0-105.636,47.235-105.636,105.636V606.11
	c0,58.399,47.223,105.636,105.636,105.636h385.259c58.399,0,105.635-47.236,105.635-105.636V235.78
	C595.904,177.379,548.669,130.144,490.269,130.144z M306.559,419.719c-9.916,13.908-23.835,24.346-39.989,30.316
	c-16.905,6.215-35.548,8.447-55.924,8.447c-5.973,0-9.94,0-12.428-0.242c-2.488-0.242-5.973-0.242-10.692-0.242v79.76
	c0.254,1.748-0.995,3.253-2.732,3.495h-48.217c-1.991,0-2.986-1.019-2.986-3.252V282.262c0-1.736,0.753-2.731,2.488-2.731
	c4.223,0,8.204,0,13.921-0.254c5.958-0.243,12.172-0.243,18.883-0.486c6.711-0.255,13.921-0.255,21.627-0.51
	c7.708-0.243,15.16-0.243,22.624-0.243c20.376,0,37.283,2.488,51.203,7.707c12.428,4.224,23.86,11.178,33.304,20.377
	c7.948,7.962,14.175,17.646,18.154,28.339c3.665,10.437,5.681,21.129,5.681,32.307C321.499,388.152,316.523,405.799,306.559,419.719
	z M482.817,516.397c-6.967,9.952-16.675,17.622-27.842,22.138c-12.185,5.194-27.087,7.912-45.001,7.912
	c-11.409,0-22.622-0.971-33.788-3.203c-8.689-1.505-17.404-4.225-25.341-7.962c-1.747-0.971-3.01-2.67-2.768-4.66v-43.254
	c0-0.681,0.268-1.699,1.021-2.233c0.728-0.534,1.479-0.292,2.232,0.242c9.686,5.681,19.879,9.757,30.826,12.186
	c9.419,2.523,19.371,3.689,29.322,3.689c9.441,0,16.165-1.263,20.632-3.495c3.979-1.747,6.7-5.973,6.7-10.438
	c0-3.494-1.992-6.699-5.973-9.951c-3.979-3.205-12.112-6.894-24.321-11.699c-12.67-4.466-24.321-10.438-35.292-17.864
	c-7.72-5.486-14.127-12.672-18.933-21.13c-3.933-7.95-5.923-16.652-5.704-25.378c0-10.691,2.985-20.874,8.52-30.073
	c6.213-9.94,15.389-17.901,26.069-22.865c11.65-5.947,26.311-8.678,43.958-8.678c10.194,0,20.632,0.741,30.826,2.233
	c7.452,0.995,14.66,2.985,21.385,5.716c0.971,0.254,1.99,1.25,2.476,2.245c0.243,0.995,0.485,1.979,0.485,2.974v40.523
	c0,0.995-0.485,1.978-1.237,2.488c-2.233,0.485-3.471,0.485-4.468,0c-7.451-3.981-15.412-6.723-23.858-8.459
	c-9.201-1.99-18.4-3.228-27.842-3.228c-4.976-0.255-10.194,0.498-14.928,1.735c-3.204,0.752-5.971,2.488-7.743,4.976
	c-1.237,1.99-1.99,4.465-1.99,6.711c0,2.233,0.995,4.479,2.548,6.457c2.233,2.742,5.194,4.976,8.448,6.711
	c5.679,2.985,11.675,5.716,17.622,8.204c13.446,4.479,26.359,10.692,38.302,18.156c8.204,5.194,14.904,12.184,19.612,20.632
	c3.98,7.863,5.972,16.651,5.681,25.535C492.745,495.038,489.274,506.688,482.817,516.397z"/>
</svg>
