<?xml version="1.0" encoding="utf-8"?>
<!-- Generator: Adobe Illustrator 16.0.3, SVG Export Plug-In . SVG Version: 6.00 Build 0)  -->
<!DOCTYPE svg PUBLIC "-//W3C//DTD SVG 1.1//EN" "http://www.w3.org/Graphics/SVG/1.1/DTD/svg11.dtd">
<svg version="1.1" id="Layer_1" xmlns="http://www.w3.org/2000/svg" xmlns:xlink="http://www.w3.org/1999/xlink" x="0px" y="0px"
	 width="24px" height="24px" viewBox="0 0 24 24" enable-background="new 0 0 24 24" xml:space="preserve">
<path fill="#F0E160" d="M11.727,0C10.76,0.001,9.813,0.086,8.893,0.248l0.098-0.014C6.568,0.662,6.129,1.558,6.129,3.21v2.182h5.726
	v0.727H3.981c-0.02,0-0.043-0.001-0.066-0.001c-1.737,0-3.184,1.239-3.507,2.881L0.404,9.022c-0.256,0.872-0.403,1.874-0.403,2.91
	c0,1.036,0.147,2.038,0.422,2.985l-0.019-0.076c0.407,1.695,1.379,2.902,3.04,2.902h1.969v-2.616
	c0.045-1.953,1.622-3.523,3.574-3.557H8.99h5.719c1.584-0.013,2.863-1.299,2.863-2.885c0-0.009,0-0.017,0-0.026V8.66V3.208
	c-0.104-1.561-1.314-2.81-2.848-2.975L14.71,0.232c-0.866-0.149-1.862-0.234-2.879-0.234c-0.036,0-0.071,0-0.107,0h0.005L11.727,0z
	 M8.631,1.755h0.017c0.603,0,1.091,0.489,1.091,1.091S9.25,3.937,8.648,3.937c-0.601,0-1.089-0.487-1.091-1.088
	c0-0.002,0-0.005,0-0.008C7.557,2.245,8.037,1.761,8.631,1.755L8.631,1.755L8.631,1.755z"/>
<path fill="#F0E160" d="M18.287,6.119v2.542c-0.021,1.977-1.604,3.578-3.572,3.63H14.71H8.991c-1.584,0.033-2.856,1.322-2.862,2.909
	v5.452c0,1.552,1.349,2.465,2.862,2.91C9.846,23.84,10.83,24,11.851,24s2.004-0.16,2.926-0.456l-0.067,0.019
	c1.44-0.416,2.862-1.258,2.862-2.91v-2.184h-5.719v-0.727h8.583c1.664,0,2.283-1.161,2.862-2.902c0.28-0.87,0.44-1.871,0.44-2.91
	c0-1.039-0.16-2.04-0.459-2.979l0.019,0.07c-0.411-1.656-1.2-2.902-2.862-2.902H18.287z M15.07,19.926h0.018
	c0.604,0,1.092,0.489,1.092,1.092c0,0.602-0.49,1.09-1.092,1.09c-0.604,0-1.091-0.488-1.091-1.09c0-0.002,0-0.004,0-0.004
	c0-0.003,0-0.006,0-0.008C13.997,20.411,14.477,19.93,15.07,19.926z"/>
</svg>
