<?xml version="1.0" encoding="utf-8"?>
<!-- Generator: Adobe Illustrator 16.0.3, SVG Export Plug-In . SVG Version: 6.00 Build 0)  -->
<!DOCTYPE svg PUBLIC "-//W3C//DTD SVG 1.1//EN" "http://www.w3.org/Graphics/SVG/1.1/DTD/svg11.dtd">
<svg version="1.1" id="Layer_1" xmlns="http://www.w3.org/2000/svg" xmlns:xlink="http://www.w3.org/1999/xlink" x="0px" y="0px"
	 width="595.279px" height="841.891px" viewBox="0 0 595.279 841.891" enable-background="new 0 0 595.279 841.891"
	 xml:space="preserve">
<path fill="#F0E160" d="M294.096,119.046c-24.26,0.025-48.007,2.156-71.079,6.222l2.462-0.355
	c-60.779,10.74-71.788,33.212-71.788,74.641v54.729h143.612v18.234H99.82c-0.501,0-1.078-0.024-1.653-0.024
	c-43.56,0-79.858,31.069-87.953,72.254l-0.11,0.576C3.686,367.195,0,392.324,0,418.312c0,25.975,3.686,51.104,10.581,74.861
	l-0.478-1.911c10.213,42.521,34.596,72.793,76.245,72.793h49.39v-65.616c1.127-48.985,40.681-88.358,89.631-89.215h0.085h143.43
	c39.727-0.318,71.813-32.575,71.813-72.351c0-0.233,0-0.429,0-0.649v0.024V199.505c-2.62-39.151-32.968-70.478-71.422-74.616
	l-0.366-0.025c-21.725-3.735-46.708-5.866-72.205-5.866c-0.906,0-1.788,0-2.682,0h0.123L294.096,119.046z M216.442,163.06h0.428
	c15.124,0,27.359,12.271,27.359,27.371c0,15.1-12.259,27.359-27.359,27.359c-15.075,0-27.309-12.21-27.358-27.285
	c0-0.049,0-0.135,0-0.209C189.512,175.355,201.551,163.207,216.442,163.06L216.442,163.06L216.442,163.06z"/>
<path fill="#F0E160" d="M458.626,272.518v63.754c-0.539,49.586-40.217,89.741-89.594,91.039h-0.123H225.48
	c-39.727,0.833-71.641,33.165-71.788,72.964v136.743c0,38.919,33.835,61.819,71.788,72.988
	c21.444,6.956,46.121,10.974,71.728,10.974c25.605,0,50.271-4.018,73.392-11.438l-1.689,0.465
	c36.126-10.433,71.788-31.546,71.788-72.988v-54.765H297.255v-18.222h215.254c41.736,0,57.264-29.124,71.788-72.794
	c7.029-21.822,11.047-46.927,11.047-72.975c0-26.062-4.018-51.166-11.512-74.716l0.465,1.751
	c-10.311-41.527-30.102-72.78-71.788-72.78H458.626z M377.946,618.795h0.441c15.138,0,27.384,12.271,27.384,27.384
	s-12.295,27.333-27.384,27.333c-15.135,0-27.357-12.221-27.357-27.333c0-0.049,0-0.099,0-0.099c0-0.073,0-0.147,0-0.196
	C351.03,630.968,363.055,618.894,377.946,618.795z"/>
</svg>
