<?xml version="1.0" encoding="utf-8"?>
<!-- Generator: Adobe Illustrator 16.0.3, SVG Export Plug-In . SVG Version: 6.00 Build 0)  -->
<!DOCTYPE svg PUBLIC "-//W3C//DTD SVG 1.1//EN" "http://www.w3.org/Graphics/SVG/1.1/DTD/svg11.dtd">
<svg version="1.1" id="Layer_1" xmlns="http://www.w3.org/2000/svg" xmlns:xlink="http://www.w3.org/1999/xlink" x="0px" y="0px"
	 width="595.279px" height="841.891px" viewBox="0 0 595.279 841.891" enable-background="new 0 0 595.279 841.891"
	 xml:space="preserve">
<g>
	<path fill="#F0E160" d="M438.278,268.368H547.75c8.27,0,14.463-6.196,14.463-14.458c0-4.129-1.027-7.231-4.136-10.327
		L421.756,107.252c-3.104-3.096-6.202-4.13-10.326-4.13c-8.271,0-14.465,6.197-14.465,14.458v109.477
		C396.965,249.78,415.553,268.368,438.278,268.368z"/>
	<path fill="#F0E160" d="M541.554,330.336h-144.59c-34.079,0-61.967-27.887-61.967-61.968v-144.59
		c0-11.362-9.3-20.656-20.655-20.656H107.784c-34.081,0-61.968,27.887-61.968,61.968v495.739c0,34.079,27.887,61.967,61.968,61.967
		h392.46c34.079,0,61.968-27.888,61.968-61.967V350.992C562.213,339.63,552.914,330.336,541.554,330.336z M178.012,581.302
		c0,29.955-14.458,40.282-37.176,40.282l-17.561-2.065l3.097-18.59l12.396,2.068c10.327,0,16.526-4.137,16.526-20.656V515.21h22.718
		V581.302z M222.425,619.519c-10.328,0-20.654-2.069-29.949-6.193l6.193-18.6c8.264,4.135,16.525,6.203,25.818,6.203
		c10.328,0,16.526-4.136,16.526-11.367c0-7.221-5.164-10.326-17.555-14.452c-12.395-4.137-28.92-15.493-28.92-30.983
		c0-15.493,14.458-30.985,39.249-30.985c9.295,0,18.588,1.03,26.849,5.165l-5.164,18.587c-7.227-3.095-14.459-5.163-21.685-5.163
		c-10.329,0-15.491,5.163-15.491,10.328c0,5.163,6.191,9.299,19.621,14.463c13.425,5.165,26.854,16.521,26.854,30.983
		C264.77,601.959,251.341,619.519,222.425,619.519z"/>
</g>
</svg>
